<svg version="1.1" id="Layer_1" xmlns="http://www.w3.org/2000/svg" xmlns:xlink="http://www.w3.org/1999/xlink" x="0px" y="0px"
	 viewBox="-111.85 -99.781 360 213" enable-background="new -111.85 -99.781 360 213" xml:space="preserve">
<g>
	<polygon points="36.33,56.749 13.512,73.325 41.296,93.514 50.009,66.692 	"/>
	<polygon points="45.401,96.5 68.218,113.074 91.022,96.5 68.218,79.917 	"/>
	<polygon points="56.927,45.277 -26.724,-15.506 -7.197,25.13 20.546,45.277 	"/>
	<polygon points="65.682,18.478 -51.191,-66.441 -31.666,-25.797 58.723,39.876 	"/>
	<polygon points="-34.622,-99.781 -48.402,-71.107 -6.056,-40.342 	"/>
	<polygon points="86.418,66.692 95.138,93.514 122.912,73.325 100.092,56.749 	"/>
	<polygon points="115.882,45.277 143.625,25.13 163.144,-15.506 79.502,45.277 	"/>
	<polygon points="70.751,18.478 77.7,39.876 168.09,-25.797 187.62,-66.441 	"/>
	<polygon points="171.05,-99.781 142.476,-40.342 184.829,-71.107 	"/>
	<path d="M55.542,60.748c0-6.997,5.676-12.677,12.682-12.677c6.99,0,12.677,5.68,12.677,12.677
		c0,7.005-5.687,12.68-12.677,12.68C61.218,73.427,55.542,67.753,55.542,60.748z"/>
	<!-- <polygon fill="#00529B" points="36.33,56.749 13.512,73.325 41.296,93.514 50.009,66.692 	"/>
	<polygon fill="#00529B" points="45.401,96.5 68.218,113.074 91.022,96.5 68.218,79.917 	"/>
	<polygon fill="#00529B" points="56.927,45.277 -26.724,-15.506 -7.197,25.13 20.546,45.277 	"/>
	<polygon fill="#00529B" points="65.682,18.478 -51.191,-66.441 -31.666,-25.797 58.723,39.876 	"/>
	<polygon fill="#00529B" points="-34.622,-99.781 -48.402,-71.107 -6.056,-40.342 	"/>
	<polygon fill="#00529B" points="86.418,66.692 95.138,93.514 122.912,73.325 100.092,56.749 	"/>
	<polygon fill="#00529B" points="115.882,45.277 143.625,25.13 163.144,-15.506 79.502,45.277 	"/>
	<polygon fill="#00529B" points="70.751,18.478 77.7,39.876 168.09,-25.797 187.62,-66.441 	"/>
	<polygon fill="#00529B" points="171.05,-99.781 142.476,-40.342 184.829,-71.107 	"/>
	<path fill="#00529B" d="M55.542,60.748c0-6.997,5.676-12.677,12.682-12.677c6.99,0,12.677,5.68,12.677,12.677
		c0,7.005-5.687,12.68-12.677,12.68C61.218,73.427,55.542,67.753,55.542,60.748z"/> -->
		
</g>

</svg>
